<svg width="32" height="32" viewBox="0 0 32 32" fill="none" xmlns="http://www.w3.org/2000/svg">
<path d="M22 4H10C6.68629 4 4 6.68629 4 10V22C4 25.3137 6.68629 28 10 28H22C25.3137 28 28 25.3137 28 22V10C28 6.68629 25.3137 4 22 4Z" stroke="#018762" stroke-width="2" stroke-linecap="round" stroke-linejoin="round"/>
<path d="M16 20.5C18.4852 20.5 20.5 18.4853 20.5 16C20.5 13.5147 18.4852 11.5 16 11.5C13.5147 11.5 11.5 13.5147 11.5 16C11.5 18.4853 13.5147 20.5 16 20.5Z" stroke="#018762" stroke-width="2" stroke-linecap="round" stroke-linejoin="round"/>
<path d="M22.75 9.25V9.25133" stroke="#018762" stroke-width="2" stroke-linecap="round" stroke-linejoin="round"/>
</svg>
