<svg width="32" height="32" viewBox="0 0 32 32" fill="none" xmlns="http://www.w3.org/2000/svg">
<path d="M9.99991 14.5V22M9.99991 9.99998V10.015M16 22V14.5M22 22V17.5C22 16.7043 21.6839 15.9413 21.1213 15.3787C20.5587 14.816 19.7956 14.5 19 14.5C18.2043 14.5 17.4412 14.816 16.8786 15.3787C16.316 15.9413 16 16.7043 16 17.5M7 4H25C26.6569 4 28 5.34315 28 7V25C28 26.6569 26.6569 28 25 28H7C5.34315 28 4 26.6569 4 25V7C4 5.34315 5.34315 4 7 4Z" stroke="#018762" stroke-width="2" stroke-linecap="round" stroke-linejoin="round"/>
</svg>
